<svg width="41" height="17" viewBox="0 0 41 17" fill="none" xmlns="http://www.w3.org/2000/svg">
<path fill-rule="evenodd" clip-rule="evenodd" d="M8.85355 0.853553C9.04882 0.658291 9.04882 0.341709 8.85355 0.146447C8.65829 -0.0488155 8.34171 -0.0488155 8.14645 0.146447L0.146447 8.14645C0.0985082 8.19438 0.062339 8.24964 0.0379391 8.30861C0.0134926 8.36756 0 8.43221 0 8.5C0 8.56779 0.0134926 8.63244 0.0379391 8.69139C0.062339 8.75036 0.0985082 8.80562 0.146447 8.85355L8.14645 16.8536C8.34171 17.0488 8.65829 17.0488 8.85355 16.8536C9.04882 16.6583 9.04882 16.3417 8.85355 16.1464L1.70711 9H40.5C40.7761 9 41 8.77614 41 8.5C41 8.22386 40.7761 8 40.5 8H1.70711L8.85355 0.853553Z" fill="#222222" fill-opacity="0.5"/>
</svg>
