<svg width="65" height="61" viewBox="0 0 65 61" fill="none" xmlns="http://www.w3.org/2000/svg">
<path d="M7.61557 35.8501L7.25921 34.4246H4.0519L3.69554 35.8501H0.274414L3.76681 24.8027H7.47303L10.9654 35.8501H7.61557ZM4.69336 31.9301H6.54647L5.61992 28.5089L4.69336 31.9301Z" fill="white"/>
<path d="M34.2721 35.8501V30.7897L30.7797 35.8501H28.2852V24.8027H31.4212V29.8631L34.9136 24.8027H37.4081V35.8501H34.2721Z" fill="white"/>
<path d="M64.2071 24.8027V27.8675H61.6413V35.8501H58.434V27.8675H55.8682V24.8027H64.2071Z" fill="white"/>
<path d="M32.8469 48.1791C30.4949 48.1791 28.2141 47.7515 26.0047 46.8249C21.5857 44.9718 18.0933 41.5507 16.3115 37.1317C14.5296 32.7128 14.4584 27.7949 16.3115 23.376C18.1646 18.957 21.5857 15.4646 26.0047 13.6828C30.4236 11.8297 35.3415 11.8297 39.7604 13.6828C44.1794 15.5359 47.6718 18.957 49.4536 23.376C53.2311 32.499 48.8834 43.0474 39.7604 46.8249C37.4797 47.7515 35.1276 48.1791 32.8469 48.1791ZM32.8469 13.8966C30.7087 13.8966 28.6418 14.3243 26.5748 15.1795C22.5123 16.8188 19.3762 19.9549 17.7369 24.0174C16.0977 28.08 16.0977 32.499 17.7369 36.4903C21.1581 44.8293 30.78 48.7493 39.0477 45.3282C47.3867 41.9071 51.3067 32.2852 47.8856 24.0174C46.2463 19.9549 43.1103 16.8188 39.0477 15.1795C37.052 14.3243 34.9138 13.8966 32.8469 13.8966Z" fill="white"/>
<path d="M43.2982 2.8011L38.6055 14.126L40.1198 14.7535L44.8126 3.42861L43.2982 2.8011Z" fill="white"/>
<path d="M25.4965 45.8314L20.8037 57.1562L22.3181 57.7838L27.0108 46.4589L25.4965 45.8314Z" fill="white"/>
<path d="M40.1278 45.7721L38.6133 46.3994L43.3048 57.7255L44.8193 57.0982L40.1278 45.7721Z" fill="white"/>
<path d="M22.2997 2.72225L20.7852 3.34961L25.4767 14.6757L26.9912 14.0484L22.2997 2.72225Z" fill="white"/>
<path d="M6.40397 19.3126L4.90723 18.6712C7.97198 11.1875 13.8164 5.41432 21.3001 2.27829C35.4122 -3.56613 51.7338 2.06447 59.2175 15.4639L57.7921 16.2479C50.736 3.56121 35.2697 -1.78429 21.8703 3.77503C14.8142 6.69724 9.32618 12.2566 6.40397 19.3126Z" fill="white"/>
<path d="M55.9395 16.3198L60.002 18.9569L60.2871 14.1104L55.9395 16.3198Z" fill="white"/>
<path d="M32.8467 60.5084C22.1557 60.5084 11.9636 54.8778 6.47559 45.0421L7.90105 44.2581C14.9571 56.8735 30.3522 62.219 43.7516 56.6597C50.8076 53.7375 56.2957 48.2494 59.2179 41.1934L60.7146 41.8348C57.6499 49.3185 51.8055 55.0917 44.3217 58.2277C40.6155 59.7244 36.6955 60.5084 32.8467 60.5084Z" fill="white"/>
<path d="M9.68264 44.1889L5.62005 41.4805L5.33496 46.3271L9.68264 44.1889Z" fill="white"/>
</svg>
