<svg width="77" height="61" viewBox="0 0 77 61" fill="none" xmlns="http://www.w3.org/2000/svg">
<path d="M13.0472 35.8941L12.6908 34.4686H9.48354L9.12718 35.8941H5.70605L9.19845 24.8467H12.9047L16.3971 35.8941H13.0472ZM10.125 31.974H11.9781L11.0516 28.5529L10.125 31.974Z" fill="#2E66A0"/>
<path d="M39.7038 35.8941V30.8336L36.2114 35.8941H33.7168V24.8467H36.8528V29.9071L40.3452 24.8467H42.8398V35.8941H39.7038Z" fill="#2E66A0"/>
<path d="M69.6388 24.8467V27.9114H67.0729V35.8941H63.8656V27.9114H61.2998V24.8467H69.6388Z" fill="#2E66A0"/>
<path d="M38.2776 48.226C35.9255 48.226 33.6448 47.7983 31.4353 46.8718C27.0164 45.0187 23.524 41.5976 21.7421 37.1786C19.9603 32.7597 19.889 27.8418 21.7421 23.4229C23.5952 19.0039 27.0164 15.5115 31.4353 13.7297C35.8543 11.8766 40.7721 11.8766 45.1911 13.7297C49.61 15.5828 53.1024 19.0039 54.8843 23.4229C58.6618 32.5458 54.3141 43.0943 45.1911 46.8718C42.9103 47.7983 40.5583 48.226 38.2776 48.226ZM38.2776 13.9435C36.1394 13.9435 34.0724 14.3711 32.0055 15.2264C27.9429 16.8657 24.8069 20.0017 23.1676 24.0643C21.5283 28.1269 21.5283 32.5458 23.1676 36.5372C26.5887 44.8761 36.2106 48.7962 44.4783 45.3751C52.8173 41.9539 56.7374 32.332 53.3162 24.0643C51.677 20.0017 48.5409 16.8657 44.4783 15.2264C42.4827 14.3711 40.3445 13.9435 38.2776 13.9435Z" fill="#2E66A0"/>
<path d="M48.7299 2.84797L44.0371 14.1729L45.5515 14.8004L50.2442 3.47549L48.7299 2.84797Z" fill="#2E66A0"/>
<path d="M30.9271 45.8773L26.2344 57.2021L27.7488 57.8297L32.4415 46.5048L30.9271 45.8773Z" fill="#2E66A0"/>
<path d="M45.5585 45.8189L44.0439 46.4463L48.7355 57.7724L50.25 57.145L45.5585 45.8189Z" fill="#2E66A0"/>
<path d="M27.7304 2.77011L26.2158 3.39746L30.9073 14.7236L32.4219 14.0962L27.7304 2.77011Z" fill="#2E66A0"/>
<path d="M11.8346 19.3595L10.3379 18.718C13.4026 11.2343 19.2471 5.46119 26.7308 2.32517C40.8429 -3.51925 57.1645 2.11135 64.6482 15.5107L63.2227 16.2947C56.1667 3.60809 40.7003 -1.73742 27.301 3.82191C20.2449 6.74411 14.7568 12.3034 11.8346 19.3595Z" fill="#2E66A0"/>
<path d="M61.3691 16.3657L65.4317 19.0028L65.7168 14.1562L61.3691 16.3657Z" fill="#2E66A0"/>
<path d="M38.2774 60.5553C27.5864 60.5553 17.3943 54.9247 11.9062 45.089L13.3317 44.305C20.3878 56.9204 35.7828 62.2659 49.1822 56.7066C56.2383 53.7843 61.7263 48.2963 64.6485 41.2402L66.1453 41.8817C63.0805 49.3654 57.2361 55.1385 49.7524 58.2746C46.0462 59.7713 42.1262 60.5553 38.2774 60.5553Z" fill="#2E66A0"/>
<path d="M15.1133 44.2357L11.0507 41.5273L10.7656 46.3739L15.1133 44.2357Z" fill="#2E66A0"/>
</svg>
