<svg width="24" height="24" viewBox="0 0 24 24" fill="none" xmlns="http://www.w3.org/2000/svg">
<path d="M2.57153 8.67813L11.7035 13.4276C11.7951 13.4752 11.8969 13.5001 12.0001 13.5001C12.1033 13.5001 12.2051 13.4752 12.2967 13.4276L21.4287 8.67899V16.929C21.4287 17.6405 21.1565 18.3251 20.6678 18.8423C20.1791 19.3595 19.5111 19.6701 18.8007 19.7104L18.643 19.7147H5.35725C4.6457 19.7148 3.96111 19.4425 3.44391 18.9538C2.9267 18.4652 2.6161 17.7971 2.57582 17.0867L2.57153 16.929V8.67813ZM5.35725 4.28613H18.643C19.3545 4.28609 20.0391 4.55832 20.5563 5.04699C21.0735 5.53567 21.3841 6.20373 21.4244 6.91413L21.4287 7.07185V7.22956L12.0001 12.1324L2.57153 7.22956V7.07185C2.57149 6.3603 2.84372 5.67571 3.33239 5.15851C3.82107 4.6413 4.48913 4.3307 5.19953 4.29042L5.35725 4.28613Z" fill="white"/>
</svg>
