<svg width="122" height="45" viewBox="0 0 122 45" fill="none" xmlns="http://www.w3.org/2000/svg">
<g clip-path="url(#clip0_2186_4881)">
<path d="M53.2407 12.3447V32.4444H49.1538V16.1349H41.8388V32.4444H37.752V12.3447H53.2407Z" fill="white"/>
<path d="M61.1865 28.6541H69.9229V32.4444H57.0996V12.3447H69.7748V16.1349H61.1865V20.4133H69.0345V24.1461H61.1865V28.6541Z" fill="white"/>
<path d="M89.003 32.4444H84.2942L76.8906 23.0262V32.4444H72.8037V12.3447H76.8906V21.2173L83.9982 12.3447H88.707L81.0366 22.1074L89.003 32.4444Z" fill="white"/>
<path d="M104.736 12.3447V16.1349H99.139V32.4444H95.0521V16.1349H89.4844V12.3447H104.736Z" fill="white"/>
<path d="M114.747 12.3447C116.741 12.3447 118.419 12.9956 119.782 14.2973C121.144 15.5989 121.825 17.1973 121.825 19.0924C121.825 20.9876 121.144 22.586 119.782 23.8876C118.419 25.1893 116.741 25.8402 114.747 25.8402H111.104V32.4444H107.018V12.3447H114.747ZM114.747 22.1361C115.616 22.1361 116.336 21.849 116.909 21.2747C117.481 20.6813 117.768 19.9539 117.768 19.0924C117.768 18.2119 117.481 17.4845 116.909 16.9102C116.336 16.3359 115.616 16.0488 114.747 16.0488H111.104V22.1361H114.747Z" fill="white"/>
<path d="M38.7954 8.58076L38.7929 8.58189L34.9514 6.03214L35.3594 1.47099C33.6958 0.786234 31.9565 0.292607 30.1765 0L28.0339 4.07278L23.3927 4.22416L20.9795 0.296209C19.2742 0.687656 17.6198 1.26705 16.0481 2.02325L16.7389 6.56002L13.0536 9.31721L8.74467 7.49985C7.55671 8.83044 6.53166 10.292 5.69028 11.855L8.97797 15.1245L7.65901 19.481L3.09111 20.4925C2.931 22.2508 2.98205 24.0214 3.24321 25.7681L7.85975 26.5242L9.42139 30.8057L6.33493 34.2536C6.81853 35.0435 7.35002 35.8045 7.92648 36.5323C8.4598 37.1936 9.02743 37.8274 9.62716 38.4321L13.821 36.3846L17.6531 38.9457L17.2242 43.5125C18.8909 44.2016 20.6333 44.7005 22.4168 45L24.5762 40.9317L29.2175 40.7943L31.6204 44.7356C33.3792 44.3359 35.085 43.7389 36.7038 42.9567L35.9966 38.4195L39.5629 35.7265L37.0477 33.2056C36.2883 33.9314 35.4519 34.5797 34.551 35.1387C32.853 36.1927 30.9592 36.9088 28.9779 37.2463C26.9966 37.5841 24.9666 37.5367 23.004 37.1071C21.0405 36.6806 19.1822 35.8805 17.5353 34.7517C15.8884 33.6229 14.4853 32.1878 13.4061 30.5285C12.327 28.8692 11.593 27.0182 11.2461 25.0814C10.8992 23.1445 10.9463 21.1598 11.3846 19.2408C12.2747 15.3682 14.7001 11.9991 18.1285 9.87304C21.5569 7.74693 25.7081 7.03758 29.6709 7.90066L29.6811 7.88695C31.6442 8.31452 33.5018 9.11619 35.1478 10.2461C35.5922 10.5512 36.0189 10.8786 36.4261 11.2267L38.7954 8.58076Z" fill="white"/>
<path d="M35.9122 32.0676C33.4637 34.3607 30.1417 35.7696 26.4832 35.7696C18.9541 35.7696 12.8506 29.8026 12.8506 22.4419C12.8506 15.0813 18.9541 9.11426 26.4832 9.11426C29.8955 9.11426 33.015 10.3399 35.4061 12.3654L32.3328 15.7977C30.7493 14.4365 28.6698 13.6106 26.3925 13.6106C21.4304 13.6106 17.4078 17.5314 17.4078 22.368C17.4078 27.2045 21.4304 31.1253 26.3925 31.1253C28.7878 31.1253 30.9641 30.2117 32.5748 28.7226L35.9122 32.0676Z" fill="white"/>
</g>
<defs>
<clipPath id="clip0_2186_4881">
<rect width="121.5" height="45" fill="white"/>
</clipPath>
</defs>
</svg>
