<svg width="40" height="40" viewBox="0 0 40 40" fill="none" xmlns="http://www.w3.org/2000/svg">
<g clip-path="url(#clip0_2205_4777)">
<path d="M20 1C9.55 1 1 9.55 1 20C1 30.45 9.55 39 20 39C30.45 39 39 30.45 39 20C39 9.55 30.45 1 20 1ZM29.31 12.59L26.08 28.17C25.89 29.31 25.13 29.5 24.37 28.93L19.43 25.13C18.29 26.27 17.15 27.22 16.96 27.6C16.58 27.79 16.39 28.17 16.01 28.17C15.44 28.17 15.44 27.79 15.25 27.41L13.54 21.71L8.41 20C7.27 19.62 7.27 18.86 8.6 18.29L27.98 10.88C28.74 10.69 29.69 11.07 29.31 12.59ZM24.75 14.3L13.92 21.14L15.63 26.84L16.01 23.04L25.32 14.68C25.89 14.11 25.51 14.11 24.75 14.3Z" fill="white"/>
</g>
<defs>
<clipPath id="clip0_2205_4777">
<rect width="40" height="40" fill="white"/>
</clipPath>
</defs>
</svg>
